<svg width="28" height="28" viewBox="0 0 28 28" fill="none" xmlns="http://www.w3.org/2000/svg">
<path d="M4.28983 20.125H24.0648V21.4375C24.0648 22.3658 23.6961 23.256 23.0397 23.9124C22.3833 24.5688 21.4931 24.9375 20.5648 24.9375H7.78983C6.86157 24.9375 5.97133 24.5688 5.31495 23.9124C4.65857 23.256 4.28983 22.3658 4.28983 21.4375V20.125Z" stroke="black" stroke-width="1.5" stroke-linecap="round" stroke-linejoin="round"/>
<path d="M21.7023 14.7875H23.9773C24.3293 14.7757 24.6801 14.835 25.0087 14.9616C25.3374 15.0883 25.6372 15.2798 25.8903 15.5247C26.1434 15.7696 26.3446 16.063 26.4819 16.3873C26.6193 16.7116 26.69 17.0603 26.6898 17.4125C26.6898 18.1319 26.404 18.8218 25.8953 19.3305C25.3866 19.8392 24.6967 20.125 23.9773 20.125H4.37728C4.02507 20.1252 3.67645 20.0545 3.35213 19.9171C3.02781 19.7798 2.73443 19.5786 2.48949 19.3255C2.24456 19.0724 2.05306 18.7726 1.92641 18.4439C1.79976 18.1153 1.74054 17.7645 1.75228 17.4125C1.74006 17.0645 1.79962 16.7177 1.92721 16.3937C2.0548 16.0697 2.24772 15.7754 2.49395 15.5291C2.74019 15.2829 3.03445 15.09 3.35846 14.9624C3.68247 14.8348 4.02927 14.7753 4.37728 14.7875H12.0773" stroke="black" stroke-width="1.5" stroke-linecap="round" stroke-linejoin="round"/>
<path d="M26.6898 13.0375C26.6832 13.4991 26.4946 13.9394 26.1648 14.2625C26.0114 14.4343 25.8222 14.5703 25.6106 14.661C25.3989 14.7517 25.17 14.7949 24.9398 14.7875H20.3898L17.4148 18.2L14.4398 14.7875H3.41483C3.18894 14.7878 2.96535 14.7421 2.75772 14.6531C2.55009 14.5642 2.36277 14.4338 2.20719 14.2701C2.05161 14.1063 1.93105 13.9125 1.85284 13.7006C1.77463 13.4887 1.74041 13.2631 1.7523 13.0375C1.74041 12.8119 1.77463 12.5863 1.85284 12.3744C1.93105 12.1625 2.05161 11.9687 2.20719 11.805C2.36277 11.6412 2.55009 11.5109 2.75772 11.4219C2.96535 11.3329 3.18894 11.2872 3.41483 11.2875H24.9398C25.4039 11.2875 25.8491 11.4719 26.1773 11.8001C26.5055 12.1283 26.6898 12.5734 26.6898 13.0375Z" stroke="black" stroke-width="1.5" stroke-linecap="round" stroke-linejoin="round"/>
<path d="M11.8148 3.5H16.6273C18.6231 3.5 20.5371 4.2928 21.9483 5.70402C23.3595 7.11523 24.1523 9.02925 24.1523 11.025H4.28983C4.28983 9.02925 5.08262 7.11523 6.49383 5.70402C7.90504 4.2928 9.81905 3.5 11.8148 3.5Z" stroke="black" stroke-width="1.5" stroke-linecap="round" stroke-linejoin="round"/>
<path d="M9.2773 7.4375L10.3273 8.575" stroke="black" stroke-width="1.5" stroke-linecap="round" stroke-linejoin="round"/>
<path d="M18.7273 7L19.8648 8.22499" stroke="black" stroke-width="1.5" stroke-linecap="round" stroke-linejoin="round"/>
<path d="M13.4773 7.52501L14.7023 6.38751" stroke="black" stroke-width="1.5" stroke-linecap="round" stroke-linejoin="round"/>
</svg>
